<svg xmlns="http://www.w3.org/2000/svg" viewBox="0 0 230.5 121.5"><defs><style>.cls-1,.cls-9{fill:#fff;}.cls-1,.cls-10,.cls-3,.cls-4,.cls-5,.cls-7,.cls-8,.cls-9{stroke:#272727;}.cls-1,.cls-10,.cls-4,.cls-5,.cls-7{stroke-miterlimit:10;}.cls-1,.cls-10,.cls-11,.cls-2,.cls-3,.cls-4,.cls-5,.cls-7,.cls-8,.cls-9{stroke-width:3px;}.cls-10,.cls-11,.cls-2,.cls-3,.cls-7{fill:none;}.cls-2{stroke:#aaa;}.cls-10,.cls-11,.cls-2,.cls-3,.cls-8,.cls-9{stroke-linecap:round;}.cls-11,.cls-2,.cls-3,.cls-8,.cls-9{stroke-linejoin:round;}.cls-4{fill:#9a3dd1;}.cls-5,.cls-8{fill:#cd75f6;}.cls-6{fill:#272727;}.cls-11{stroke:#000;}</style></defs><title>Бытовая электроника</title><g id="Слой_2" data-name="Слой 2"><g id="Слой_1-2" data-name="Слой 1"><path class="cls-1" d="M131.76,64H98.24a4.13,4.13,0,0,0-4.11,3.72L89,120h52l-5.13-52.28A4.13,4.13,0,0,0,131.76,64Z"/><path class="cls-2" d="M107.5,5.5h15a0,0,0,0,1,0,0v.68a5.32,5.32,0,0,1-5.32,5.32h-4.37a5.32,5.32,0,0,1-5.32-5.32V5.5A0,0,0,0,1,107.5,5.5Z"/><rect class="cls-2" x="111.5" y="11.5" width="7" height="47"/><path class="cls-3" d="M102.75,58.5h24.5c1.55,0,2.85-1.51,3-3.49L134,6H96l3.75,49C99.9,57,101.2,58.5,102.75,58.5Z"/><path class="cls-3" d="M143.79,15.84,141.25,49c-.15,2-1.45,3.49-3,3.49h-7.81l2.91-38h8.13A2.86,2.86,0,0,1,143.79,15.84Z"/><path class="cls-3" d="M143.79,15.84,141.25,49c-.15,2-1.45,3.49-3,3.49h-7.81l2.91-38h8.13A2.86,2.86,0,0,1,143.79,15.84Z"/><path class="cls-3" d="M143.79,15.84,141.25,49c-.15,2-1.45,3.49-3,3.49h-7.81l.42-5.5h3.41c1,0,1.92-1.09,2-2.53l1.71-24a1.91,1.91,0,0,0-1.56-1H133l.38-5h8.13A2.86,2.86,0,0,1,143.79,15.84Z"/><path class="cls-4" d="M136.54,74.5H93.46l.67-6.78A4.13,4.13,0,0,1,98.24,64h33.52a4.13,4.13,0,0,1,4.11,3.72Z"/><path class="cls-5" d="M136.54,74.5H93.46l.67-6.78A4.13,4.13,0,0,1,98.24,64h33.52a4.13,4.13,0,0,1,4.11,3.72Z"/><circle class="cls-5" cx="115" cy="95" r="9.5"/><circle class="cls-1" cx="115" cy="95" r="4.5"/><circle class="cls-6" cx="108.25" cy="69.5" r="2.25"/><circle class="cls-6" cx="121.75" cy="69.5" r="2.25"/><line class="cls-7" x1="112" y1="92" x2="118" y2="98"/><polygon class="cls-3" points="97.3 23 96.33 21 89 6 96.12 6 97.16 21 97.3 23"/><path class="cls-8" d="M100.5,1.5h29a4,4,0,0,1,4,4v0a0,0,0,0,1,0,0h-37a0,0,0,0,1,0,0v0a4,4,0,0,1,4-4Z"/><path class="cls-3" d="M106.5,58.5h17a4,4,0,0,1,4,4v1a0,0,0,0,1,0,0h-25a0,0,0,0,1,0,0v-1A4,4,0,0,1,106.5,58.5Z"/><line class="cls-3" x1="105.5" y1="28.5" x2="108.5" y2="28.5"/><line class="cls-3" x1="105.5" y1="33.5" x2="110.5" y2="33.5"/><line class="cls-3" x1="105.5" y1="23.5" x2="110.5" y2="23.5"/><line class="cls-3" x1="105.5" y1="38.5" x2="108.5" y2="38.5"/><line class="cls-3" x1="105.5" y1="43.5" x2="110.5" y2="43.5"/><path class="cls-1" d="M54.5,71.67a3.46,3.46,0,0,1-1,2.47,3.27,3.27,0,0,1-1,.68v6.35h-31V74.82A3.5,3.5,0,0,1,23,68.17H51A3.5,3.5,0,0,1,54.5,71.67Z"/><circle class="cls-6" cx="37.5" cy="74" r="1.5"/><circle class="cls-6" cx="42.5" cy="75" r="1.5"/><circle class="cls-6" cx="47.5" cy="74" r="1.5"/><circle class="cls-6" cx="32.5" cy="75" r="1.5"/><circle class="cls-6" cx="27.5" cy="74" r="1.5"/><path class="cls-5" d="M2.5,115,6.73,92.07C8.12,84.79,14.79,79.5,22.58,79.5H52.42c7.79,0,14.46,5.29,15.85,12.57L72.5,115Z"/><path class="cls-1" d="M9,114l2.5-19.06C12.93,87,18.29,84.5,24.86,84.5H50c6.56,0,12.19,4.39,13.36,10.44L66,114Z"/><rect class="cls-9" x="1.5" y="114" width="72" height="2"/><rect class="cls-9" x="71.42" y="88.52" width="7" height="2" rx="1" transform="translate(-24.55 28.42) rotate(-18.51)"/><line class="cls-3" x1="68.76" y1="91.59" x2="71.6" y2="90.64"/><rect class="cls-9" x="2" y="114.5" width="5.5" height="5.5" rx="1" transform="translate(122 112.5) rotate(90)"/><rect class="cls-9" x="67" y="114.5" width="5.5" height="5.5" rx="1" transform="translate(187 47.5) rotate(90)"/><line class="cls-10" x1="19.5" y1="91" x2="29.5" y2="91"/><line class="cls-10" x1="19.5" y1="95" x2="35.5" y2="95"/><line class="cls-10" x1="19.5" y1="99" x2="29.5" y2="99"/><path class="cls-11" d="M211.23,115.6c-.18.47-.37.94-.56,1.4H170.72c-.29-.74-.57-1.49-.84-2.26-3.92-11.2-5.4-25.18-3.57-39.81a93.9,93.9,0,0,1,3.57-16.65A74.41,74.41,0,0,1,177.65,41h26a78.13,78.13,0,0,1,7.6,16.68,94.35,94.35,0,0,1,3.08,12.08C217.48,86.69,216.05,103.16,211.23,115.6Z"/><path class="cls-8" d="M211.23,115.6c-.18.47-.37.94-.56,1.4H170.72c-.29-.74-.57-1.49-.84-2.26-3.92-11.2-5.4-25.18-3.57-39.81a93.9,93.9,0,0,1,3.57-16.65A74.41,74.41,0,0,1,177.65,41h26a78.13,78.13,0,0,1,7.6,16.68,94.35,94.35,0,0,1,3.08,12.08C217.48,86.69,216.05,103.16,211.23,115.6Z"/><path class="cls-9" d="M205.23,115.6c-.18.47-.37.94-.56,1.4H176.72c-.29-.74-.57-1.49-.84-2.26-3.92-11.2-5.4-25.18-3.57-39.81a93.9,93.9,0,0,1,3.57-16.65A74.41,74.41,0,0,1,183.65,41h14a78.13,78.13,0,0,1,7.6,16.68,94.35,94.35,0,0,1,3.08,12.08C211.48,86.69,210.05,103.16,205.23,115.6Z"/><path class="cls-9" d="M177.65,41a74.41,74.41,0,0,0-7.77,17.28c-.78,2.48-1.47,5.06-2,7.72h-.06a38.57,38.57,0,0,0,.72-7.5c0-7.68-2.16-14.32-5.3-17.5Z"/><path class="cls-3" d="M229,87q0,3.3-.17,6.5h-13q.21-3.19.17-6.5h6a97.2,97.2,0,0,0-1.68-17.24,94.35,94.35,0,0,0-3.08-12.08,82.11,82.11,0,0,0-4.07-10.18h-6a70,70,0,0,0-3.53-6.5h13a70,70,0,0,1,3.53,6.5,82.11,82.11,0,0,1,4.07,10.18,94.35,94.35,0,0,1,3.08,12.08A97.2,97.2,0,0,1,229,87Z"/><rect class="cls-9" x="167.5" y="114" width="47" height="6" rx="3"/><path class="cls-9" d="M211.3,100h-8a96.95,96.95,0,0,0-4.07-41.32c-.87-2.68-1.85-5.24-2.92-7.68h8c1.07,2.44,2.05,5,2.92,7.68A96.95,96.95,0,0,1,211.3,100Z"/><line class="cls-3" x1="199.5" y1="59" x2="201.5" y2="59"/><line class="cls-3" x1="201.5" y1="65" x2="203.5" y2="65"/><line class="cls-3" x1="202.5" y1="71" x2="204.5" y2="71"/><line class="cls-3" x1="203.5" y1="78" x2="205.5" y2="78"/><line class="cls-3" x1="204.5" y1="84" x2="206.5" y2="84"/><line class="cls-3" x1="204.5" y1="90" x2="206.5" y2="90"/><line class="cls-3" x1="204.5" y1="96" x2="206.5" y2="96"/></g></g></svg>