<svg xmlns="http://www.w3.org/2000/svg" viewBox="0 0 229 99"><defs><style>.cls-1{fill:#fff;}.cls-1,.cls-2,.cls-3,.cls-5,.cls-6{stroke:#272727;stroke-width:3px;}.cls-1,.cls-5,.cls-6{stroke-linecap:round;}.cls-1,.cls-6{stroke-linejoin:round;}.cls-2{fill:#cd75f6;}.cls-2,.cls-3,.cls-5{stroke-miterlimit:10;}.cls-3,.cls-5,.cls-6{fill:none;}.cls-4{fill:#272727;}</style></defs><title>2</title><g id="Слой_2" data-name="Слой 2"><g id="Слой_1_копия_" data-name="Слой 1 (копия)"><path class="cls-1" d="M97.5,60.81V93.5h-43V41.15c0-3.4,3.2-6.15,7.15-6.15h28.7c4,0,7.15,2.75,7.15,6.15v9.34"/><path class="cls-1" d="M97.5,50.49V41.15c0-3.4,3.2-6.15,7.15-6.15h28.7c4,0,7.15,2.75,7.15,6.15v9.34"/><polyline class="cls-1" points="140.5 76 140.5 93.5 97.5 93.5 97.5 76"/><path class="cls-1" d="M140.5,50.49V41.15c0-3.4,3.2-6.15,7.15-6.15h28.7c4,0,7.15,2.75,7.15,6.15V93.5h-43V60.81"/><path class="cls-2" d="M61.65,65.5H90.51a7.15,7.15,0,0,1,7.15,7.15V76a0,0,0,0,1,0,0H54.5a0,0,0,0,1,0,0V72.65A7.15,7.15,0,0,1,61.65,65.5Z"/><path class="cls-2" d="M104.82,65.5h28.86a7.15,7.15,0,0,1,7.15,7.15V76a0,0,0,0,1,0,0H97.67a0,0,0,0,1,0,0V72.65A7.15,7.15,0,0,1,104.82,65.5Z"/><path class="cls-2" d="M148,65.5h28.86A7.15,7.15,0,0,1,184,72.65V76a0,0,0,0,1,0,0H140.83a0,0,0,0,1,0,0V72.65A7.15,7.15,0,0,1,148,65.5Z"/><path class="cls-1" d="M54.08,57.5h0a7.15,7.15,0,0,1,7.15,7.15V97.5a0,0,0,0,1,0,0H46.93a0,0,0,0,1,0,0V64.65a7.15,7.15,0,0,1,7.15-7.15Z"/><path class="cls-1" d="M184.08,57.5h0a7.15,7.15,0,0,1,7.15,7.15V97.5a0,0,0,0,1,0,0H176.93a0,0,0,0,1,0,0V64.65a7.15,7.15,0,0,1,7.15-7.15Z"/><path class="cls-1" d="M59.31,46V43.9a3.74,3.74,0,0,1,3.74-3.74h2.42"/><path class="cls-1" d="M51.31,65.66V64.4a2.24,2.24,0,0,1,2.24-2.24H55"/><path class="cls-1" d="M181.31,65.66V64.4a2.24,2.24,0,0,1,2.24-2.24H185"/><path class="cls-1" d="M102.31,46V43.9a3.74,3.74,0,0,1,3.74-3.74h2.42"/><path class="cls-1" d="M145.31,46V43.9a3.74,3.74,0,0,1,3.74-3.74h2.42"/><line class="cls-3" x1="212.75" y1="94.5" x2="212.75" y2="20.5"/><line class="cls-4" x1="212.75" y1="94.5" x2="212.75" y2="20.5"/><path class="cls-1" d="M208.5,88h9a7,7,0,0,1,7,7V96.5a0,0,0,0,1,0,0h-23a0,0,0,0,1,0,0V95A7,7,0,0,1,208.5,88Z"/><path class="cls-2" d="M198.5,1.5h29a0,0,0,0,1,0,0V9A14.5,14.5,0,0,1,213,23.5h0A14.5,14.5,0,0,1,198.5,9V1.5A0,0,0,0,1,198.5,1.5Z" transform="translate(426 25) rotate(180)"/><line class="cls-5" x1="204.5" y1="23.5" x2="204.5" y2="35.5"/><line class="cls-5" x1="198.5" y1="23.5" x2="198.5" y2="28.5"/><line class="cls-5" x1="220.5" y1="24" x2="220.5" y2="41"/><line class="cls-5" x1="227.5" y1="24" x2="227.5" y2="29"/><line class="cls-6" x1="1.5" y1="61.5" x2="43.5" y2="61.5"/><line class="cls-6" x1="9.5" y1="77.5" x2="35.5" y2="77.5"/><line class="cls-6" x1="13.5" y1="85.5" x2="31.5" y2="85.5"/><line class="cls-6" x1="22.5" y1="62.5" x2="22.5" y2="97.5"/><path class="cls-6" d="M37.5,62.5c-8.37,10.72-8,22.42,0,35"/><path class="cls-6" d="M6.86,62.5c9.73,10.72,9.31,22.42,0,35"/></g></g></svg>