<svg xmlns="http://www.w3.org/2000/svg" viewBox="0 0 221.53 102.77"><defs><style>.cls-1,.cls-6{fill:#fff;}.cls-1,.cls-2,.cls-3,.cls-4,.cls-6,.cls-7{stroke:#272727;}.cls-1,.cls-2,.cls-7{stroke-linecap:round;stroke-linejoin:round;}.cls-1,.cls-2,.cls-4,.cls-6,.cls-7{stroke-width:3px;}.cls-2,.cls-4{fill:#cd75f6;}.cls-3,.cls-5{fill:#272727;}.cls-3,.cls-4,.cls-6{stroke-miterlimit:10;}.cls-3{stroke-width:2px;}.cls-7{fill:none;}</style></defs><title>3_1</title><g id="Слой_2" data-name="Слой 2"><g id="Слой_1_копия2_" data-name="Слой 1 (копия2)"><path class="cls-1" d="M192,61.36H181.87c-2.49,0-8.73,6.21-8.73,6.21s-5-.45-5-3.11V59.14c0-3.11,2.49-9.32,5.61-11.09a26.42,26.42,0,0,1,8.72-2.66c1.25,0,3.12,2.09,5,2.09h9.23c1.87,0,3.74-2.09,5-2.09a26.46,26.46,0,0,1,8.73,2.66c3.11,1.77,5.61,8,5.61,11.09v5.32c0,2.66-5,3.11-5,3.11s-6.23-6.21-8.72-6.21H192Z"/><path class="cls-1" d="M192,75.2H180.16C177.25,75.2,170,85.39,170,85.39s-5.82-.73-5.82-5.1V71.57c0-5.09,2.91-15.28,6.54-18.18,3.06-2.45,8.73-4.37,10.19-4.37s3.63,5.82,5.81,5.82h10.78c2.18,0,4.36-5.82,5.82-5.82s7.12,1.92,10.18,4.37c3.64,2.9,6.55,13.09,6.55,18.18v8.72c0,4.37-5.82,5.1-5.82,5.1S206.93,75.2,204,75.2H192Z"/><circle class="cls-2" cx="176.75" cy="59.57" r="4"/><circle class="cls-2" cx="199.3" cy="69.02" r="2.55"/><circle class="cls-2" cx="184.75" cy="69.02" r="2.55"/><circle class="cls-3" cx="203.6" cy="60.29" r="1.39"/><circle class="cls-4" cx="196.39" cy="59.57" r="1.09"/><circle class="cls-4" cx="186.93" cy="59.57" r="1.09"/><circle class="cls-3" cx="207.3" cy="64" r="1.39"/><circle class="cls-3" cx="207.3" cy="56.59" r="1.39"/><circle class="cls-3" cx="211" cy="60.29" r="1.39"/><circle class="cls-5" cx="191.66" cy="51.2" r="1.84"/><rect class="cls-6" x="39.19" y="26.7" width="8" height="51" transform="translate(49.56 -15.25) rotate(45)"/><circle class="cls-6" cx="19.5" cy="75.89" r="18"/><circle class="cls-4" cx="19.5" cy="75.89" r="11"/><polygon class="cls-2" points="58.74 45.13 50.26 36.64 60.44 24.2 71.19 34.94 58.74 45.13"/><line class="cls-7" x1="62.63" y1="32.75" x2="19.5" y2="75.89"/><line class="cls-7" x1="15.26" y1="73.06" x2="22.33" y2="80.13"/><path class="cls-1" d="M87.84,89.8h47.81A5.34,5.34,0,0,1,141,95.14v6.13a0,0,0,0,1,0,0H82.5a0,0,0,0,1,0,0V95.14A5.34,5.34,0,0,1,87.84,89.8Z"/><rect class="cls-1" x="89.38" y="80.63" width="43.58" height="9.17" rx="4"/><rect class="cls-2" x="97.41" y="74.89" width="27.52" height="5.73"/><path class="cls-7" d="M130.1,21.68c3,4.91,7.45,13.66,7.45,23.4,0,10.49-2.85,22.13-4.53,28.09"/><path class="cls-1" d="M137.55,42.78c0,14.91-5.74,32.11-5.74,32.11H91.67s-2.29-13.76,3.44-18.34,8-5.74,13.77-8c4.74-1.91,8.7-7.73,9.93-9.68a18.54,18.54,0,0,1-8.79,2.8,31.64,31.64,0,0,1-9.17-1.15s-8,3.44-12.62,0-3.44-8-2.29-11.47,5.73-5.73,12.62-6.88a9.41,9.41,0,0,0,7-5.14,4.82,4.82,0,0,1,3.87-2.63,8.41,8.41,0,0,0,4-1.4,17.23,17.23,0,0,0,5.29-6.15A37.23,37.23,0,0,0,116.9,1.5s6.88,2.29,9.18,6.88A13.14,13.14,0,0,1,127,15.3C129.71,18.93,137.55,30.47,137.55,42.78Z"/><path class="cls-7" d="M118.75,6.82A10.34,10.34,0,0,1,119,8a9.83,9.83,0,0,1-1,6.13"/><path class="cls-7" d="M127,15.3a23.87,23.87,0,0,1-.92,4.55"/><path class="cls-7" d="M121.49,37.05a23.12,23.12,0,0,1-2.68,1.79"/><path class="cls-4" d="M145,47.94c0,18.35-1.15,22.94-1.15,22.94H133c1.68-6,4.53-17.6,4.53-28.1,0-9.73-4.41-18.48-7.45-23.39v-.11l-3-8.07C127.65,11.78,145,29.88,145,47.94Z"/><line class="cls-7" x1="87.16" y1="39.57" x2="96.83" y2="34.18"/><line class="cls-7" x1="110.02" y1="24.44" x2="114.61" y2="24.44"/></g></g></svg>