<svg xmlns="http://www.w3.org/2000/svg" viewBox="0 0 200.86 104"><defs><style>.cls-1{fill:#d2ace8;opacity:0.29;}.cls-2,.cls-8{fill:#cd75f6;}.cls-3,.cls-7{fill:#fff;}.cls-3,.cls-4,.cls-5,.cls-6,.cls-8{stroke:#272727;}.cls-3,.cls-4,.cls-5,.cls-6,.cls-7,.cls-8{stroke-linecap:round;stroke-linejoin:round;stroke-width:3px;}.cls-4{fill:none;}.cls-5{fill:#aaa;}.cls-6,.cls-9{fill:#272727;}.cls-7{stroke:#fff;}.cls-10{fill:#dfa9ff;}</style></defs><title>4_4</title><g id="Слой_2" data-name="Слой 2"><g id="Слой_1_копия3_" data-name="Слой 1 (копия3)"><circle class="cls-1" cx="164.36" cy="36.5" r="36.5"/><circle class="cls-2" cx="174.86" cy="26" r="12"/><polygon class="cls-3" points="172.38 65.42 172.38 89.3 29.09 89.3 29.09 57.88 50.46 56.62 63.03 35.26 122.1 35 135.93 57.88 172.38 65.42"/><polygon class="cls-4" points="172.38 65.42 172.38 89.3 29.09 89.3 29.09 57.88 50.47 56.62 63.03 35.26 122.11 35 135.93 57.88 172.38 65.42"/><path class="cls-4" d="M166.72,74.22a5.65,5.65,0,0,0,5.66,5.66V68.56A5.65,5.65,0,0,0,166.72,74.22Z"/><rect class="cls-5" x="161.69" y="83.65" width="15.08" height="8.8" transform="translate(338.47 176.09) rotate(-180)"/><rect class="cls-5" x="25.95" y="83.65" width="15.08" height="8.8" transform="translate(66.99 176.09) rotate(-180)"/><circle class="cls-6" cx="136.56" cy="89.93" r="12.57"/><circle class="cls-7" cx="136.56" cy="89.93" r="5.03"/><circle class="cls-6" cx="66.17" cy="89.93" r="12.57"/><circle class="cls-7" cx="66.17" cy="89.93" r="5.03"/><path class="cls-8" d="M166.72,74.22a5.65,5.65,0,0,0,5.66,5.66V68.56A5.65,5.65,0,0,0,166.72,74.22Z"/><polygon class="cls-8" points="127.13 56.62 118.33 41.54 93.19 41.54 93.19 56.62 127.13 56.62"/><polygon class="cls-8" points="58 56.62 66.8 41.54 86.91 41.54 86.91 56.62 58 56.62"/><rect class="cls-9" x="91.94" y="64.17" width="11.31" height="3.77" rx="1.5" transform="translate(195.19 132.1) rotate(-180)"/><rect class="cls-8" x="29.09" y="62.5" width="5.27" height="12"/><rect class="cls-10" x="77.36" y="41.5" width="2" height="15"/><rect class="cls-10" x="104.86" y="42" width="2" height="15"/><rect class="cls-10" x="69.86" y="42" width="6" height="15"/><rect class="cls-10" x="97.86" y="42" width="6" height="15"/><polygon class="cls-4" points="127.13 56.62 118.33 41.54 93.19 41.54 93.19 56.62 127.13 56.62"/><polygon class="cls-4" points="58 56.62 66.8 41.54 86.91 41.54 86.91 56.62 58 56.62"/><path class="cls-3" d="M35.07,39.54a7.57,7.57,0,0,1-7.48,1.92L7.47,61.58a3.48,3.48,0,0,1-4.94,0h0a3.49,3.49,0,0,1,0-4.95l20-20a7.6,7.6,0,0,1,8.22-10L26.43,31,27.85,36l5.07,1.43,4.31-4.31A7.51,7.51,0,0,1,35.07,39.54Z"/><circle class="cls-9" cx="3.86" cy="60" r="2"/></g></g></svg>