<svg xmlns="http://www.w3.org/2000/svg" viewBox="0 0 228.8 113.5"><defs><style>.cls-1{fill:#fff;}.cls-1,.cls-2,.cls-4,.cls-5,.cls-7{stroke:#272727;stroke-linecap:round;stroke-linejoin:round;stroke-width:3px;}.cls-2{fill:#cd75f6;}.cls-3{fill:#8655a3;}.cls-4{fill:none;}.cls-5{fill:#b47dd3;}.cls-6{fill:#cf95f4;}.cls-7{fill:#aaa;}</style></defs><title>5</title><g id="Слой_2" data-name="Слой 2"><g id="Слой_1_копия_2" data-name="Слой 1 копия 2"><rect class="cls-1" x="151.5" y="52" width="24" height="59" transform="translate(327 163) rotate(-180)"/><rect class="cls-2" x="151.5" y="61" width="15" height="9" transform="translate(318 131) rotate(-180)"/><rect class="cls-3" x="151.5" y="61" width="5" height="9" transform="translate(308 131) rotate(-180)"/><rect class="cls-4" x="151.5" y="61" width="15" height="9" transform="translate(318 131) rotate(-180)"/><rect class="cls-2" x="151.5" y="70" width="15" height="9" transform="translate(318 149) rotate(-180)"/><rect class="cls-3" x="151.5" y="70" width="5" height="9" transform="translate(308 149) rotate(-180)"/><rect class="cls-4" x="151.5" y="70" width="15" height="9" transform="translate(318 149) rotate(-180)"/><rect class="cls-2" x="151.5" y="79" width="15" height="9" transform="translate(318 167) rotate(-180)"/><rect class="cls-3" x="151.5" y="79" width="5" height="9" transform="translate(308 167) rotate(-180)"/><rect class="cls-4" x="151.5" y="79" width="15" height="9" transform="translate(318 167) rotate(-180)"/><rect class="cls-2" x="151.5" y="88" width="15" height="9" transform="translate(318 185) rotate(-180)"/><rect class="cls-3" x="151.5" y="88" width="5" height="9" transform="translate(308 185) rotate(-180)"/><rect class="cls-4" x="151.5" y="88" width="15" height="9" transform="translate(318 185) rotate(-180)"/><rect class="cls-2" x="82.5" y="1.5" width="57.5" height="8.59"/><rect class="cls-2" x="60.5" y="43.5" width="101" height="8.59"/><rect class="cls-1" x="70.5" y="10.09" width="81.5" height="100.91"/><rect class="cls-5" x="84.5" y="25" width="55" height="15"/><rect class="cls-6" x="84.5" y="25" width="55" height="5"/><rect class="cls-4" x="84.5" y="25" width="55" height="15"/><rect class="cls-5" x="84.5" y="40" width="55" height="15"/><rect class="cls-6" x="84.5" y="40" width="55" height="5"/><rect class="cls-4" x="84.5" y="40" width="55" height="15"/><rect class="cls-5" x="84.5" y="55" width="55" height="15"/><rect class="cls-6" x="84.5" y="55" width="55" height="5"/><rect class="cls-4" x="84.5" y="55" width="55" height="15"/><rect class="cls-5" x="84.5" y="70" width="55" height="15"/><rect class="cls-6" x="84.5" y="70" width="55" height="5"/><rect class="cls-4" x="84.5" y="70" width="55" height="15"/><rect class="cls-2" x="104.5" y="77" width="15" height="15"/><rect class="cls-2" x="104.5" y="62" width="15" height="15"/><rect class="cls-2" x="104.5" y="47" width="15" height="15"/><rect class="cls-2" x="104.5" y="32" width="15" height="15"/><rect class="cls-2" x="104.5" y="17" width="15" height="15"/><rect class="cls-7" x="84.5" y="100.5" width="6" height="10.5"/><rect class="cls-7" x="108.5" y="100.5" width="6" height="10.5"/><rect class="cls-7" x="133.5" y="100.5" width="6" height="10.5"/><rect class="cls-1" x="46.5" y="52" width="24" height="59"/><rect class="cls-2" x="55.5" y="61" width="15" height="9"/><rect class="cls-3" x="65.5" y="61" width="5" height="9"/><rect class="cls-4" x="55.5" y="61" width="15" height="9"/><rect class="cls-2" x="55.5" y="70" width="15" height="9"/><rect class="cls-3" x="65.5" y="70" width="5" height="9"/><rect class="cls-4" x="55.5" y="70" width="15" height="9"/><rect class="cls-2" x="55.5" y="79" width="15" height="9"/><rect class="cls-3" x="65.5" y="79" width="5" height="9"/><rect class="cls-4" x="55.5" y="79" width="15" height="9"/><rect class="cls-2" x="55.5" y="88" width="15" height="9"/><rect class="cls-3" x="65.5" y="88" width="5" height="9"/><rect class="cls-4" x="55.5" y="88" width="15" height="9"/><circle class="cls-2" cx="12.5" cy="83" r="11"/><line class="cls-4" x1="12.5" y1="112" x2="12.5" y2="86"/><path class="cls-4" d="M18.15,85a6,6,0,0,1-11.3,0"/><circle class="cls-2" cx="29.5" cy="98" r="7"/><line class="cls-4" x1="29.5" y1="112" x2="29.5" y2="99"/><path class="cls-4" d="M32.84,99.18a3.54,3.54,0,0,1-6.68,0"/><polygon class="cls-1" points="222.5 92.2 222.5 111 193.5 111 193.5 91.2 207.5 77.2 222.5 92.2"/><line class="cls-1" x1="227.3" y1="97" x2="222.5" y2="92.2"/><line class="cls-1" x1="193.5" y1="91.2" x2="187.7" y2="97"/><rect class="cls-2" x="205.5" y="85" width="4" height="4" transform="translate(122.29 -121.24) rotate(45)"/><rect class="cls-2" x="198" y="98" width="4.75" height="4.75"/><rect class="cls-2" x="202.75" y="98" width="4.75" height="4.75"/><rect class="cls-2" x="212.5" y="101" width="5" height="10"/></g></g></svg>