<svg xmlns="http://www.w3.org/2000/svg" viewBox="0 0 184.5 101.93"><defs><style>.cls-1,.cls-2{fill:none;}.cls-1,.cls-10,.cls-9{stroke:#aaa;}.cls-1,.cls-10,.cls-2,.cls-3,.cls-4,.cls-5,.cls-7,.cls-9{stroke-linecap:round;stroke-linejoin:round;}.cls-1,.cls-10,.cls-2,.cls-3,.cls-4,.cls-5,.cls-7{stroke-width:3px;}.cls-2,.cls-3,.cls-4,.cls-5,.cls-7{stroke:#272727;}.cls-10,.cls-3,.cls-8,.cls-9{fill:#fff;}.cls-4{fill:#543268;}.cls-5{fill:#cd75f6;}.cls-6,.cls-7{fill:#ad67d6;}.cls-9{stroke-width:2px;}</style></defs><title>6</title><g id="Слой_2" data-name="Слой 2"><g id="Слой_1_копия_3" data-name="Слой 1 копия 3"><rect class="cls-1" x="1.5" y="53.18" width="44" height="47"/><rect class="cls-1" x="5.5" y="42.18" width="21" height="11"/><circle class="cls-1" cx="63.25" cy="88.18" r="12.25"/><circle class="cls-1" cx="74.87" cy="85.55" r="14.87"/><circle class="cls-2" cx="79.34" cy="90.8" r="9.62"/><rect class="cls-3" x="27.5" y="70.68" width="29.5" height="29.5"/><line class="cls-3" x1="31.89" y1="75.06" x2="52.61" y2="95.79"/><line class="cls-3" x1="31.89" y1="95.79" x2="52.61" y2="75.06"/><path class="cls-2" d="M29.64,70.68v-4h9.82a8.74,8.74,0,0,1,5.63,2.06l2.3,1.93"/><rect class="cls-3" x="51.42" y="66.69" width="5.58" height="3.99"/><polygon class="cls-2" points="148 100.18 134.5 100.18 132.25 79.68 150.25 79.68 148 100.18"/><rect class="cls-2" x="155.5" y="97.17" width="24" height="0.01"/><line class="cls-2" x1="155.5" y1="100.18" x2="155.5" y2="97.18"/><line class="cls-2" x1="159.5" y1="100.18" x2="159.5" y2="97.18"/><line class="cls-2" x1="163.5" y1="100.18" x2="163.5" y2="97.18"/><line class="cls-2" x1="167.5" y1="100.18" x2="167.5" y2="97.18"/><line class="cls-2" x1="171.5" y1="100.18" x2="171.5" y2="97.18"/><line class="cls-2" x1="175.5" y1="100.18" x2="175.5" y2="97.18"/><line class="cls-2" x1="179.5" y1="100.18" x2="179.5" y2="97.18"/><line class="cls-2" x1="167.5" y1="97.18" x2="167.5" y2="39.18"/><circle class="cls-1" cx="141.25" cy="89.18" r="3"/><path class="cls-3" d="M97.5,15.18V11.5a5,5,0,1,0-5-5.27"/><rect class="cls-4" x="85.5" y="19.18" width="23" height="16"/><polygon class="cls-2" points="97 15.18 76.5 21.68 117.5 21.68 97 15.18"/><rect class="cls-5" x="84" y="18.68" width="9" height="36"/><rect class="cls-6" x="84" y="18.68" width="4" height="36"/><rect class="cls-2" x="84" y="18.68" width="9" height="36"/><line class="cls-2" x1="86" y1="36.68" x2="90" y2="36.68"/><rect class="cls-5" x="97" y="18.68" width="9" height="36"/><rect class="cls-6" x="97" y="18.68" width="4" height="36"/><rect class="cls-2" x="97" y="18.68" width="9" height="36"/><line class="cls-2" x1="99" y1="36.68" x2="103" y2="36.68"/><path class="cls-3" d="M61.5,15.18V11.5a5,5,0,1,0-5-5.27"/><polygon class="cls-2" points="61 15.18 40.5 21.68 81.5 21.68 61 15.18"/><polygon class="cls-7" points="39.84 31.49 46.82 27.84 44.5 18.18 39.18 22.52 39.84 31.49"/><polygon class="cls-5" points="82.16 31.49 75.18 27.84 76.84 17.86 82.82 22.52 82.16 31.49"/><path class="cls-5" d="M77.25,18.18l-3,36h-27l-3-36,8.75-4a8.24,8.24,0,0,0-.25,2,8,8,0,1,0,16,0,8.24,8.24,0,0,0-.25-2Z"/><path class="cls-5" d="M77.25,18.18l-3,36h-27l-3-36,8.75-4a8.24,8.24,0,0,0-.25,2,8,8,0,0,0,7.75,8h.25a8,8,0,0,0,8-8,8.24,8.24,0,0,0-.25-2Z"/><path class="cls-6" d="M60.5,24.17v30H47.25l-3-36,8.75-4a8.24,8.24,0,0,0-.25,2A8,8,0,0,0,60.5,24.17Z"/><path class="cls-2" d="M77.25,18.18l-3,36h-27l-3-36,8.75-4a8.24,8.24,0,0,0-.25,2,8,8,0,1,0,16,0,8.24,8.24,0,0,0-.25-2Z"/><line class="cls-2" x1="50.5" y1="35.18" x2="70.5" y2="35.18"/><line class="cls-2" x1="54.5" y1="40.18" x2="66.5" y2="40.18"/><line class="cls-2" x1="52.5" y1="45.18" x2="68.5" y2="45.18"/><circle class="cls-2" cx="67.5" cy="29.18" r="2"/><path class="cls-2" d="M135.5,36.18s1-34,8-34,7,34,7,34"/><polyline class="cls-8" points="183.5 9.18 11.5 9.18 11.5 5.18 183.5 5.18"/><line class="cls-9" x1="11.5" y1="5.18" x2="183.5" y2="5.18"/><line class="cls-9" x1="183.5" y1="9.18" x2="11.5" y2="9.18"/><path class="cls-2" d="M97.5,15.18V11.5a5,5,0,0,0,0-10"/><path class="cls-2" d="M61.5,15.18V11.5a5,5,0,0,0,0-10"/><path class="cls-2" d="M137,18.61c-1.19,8.69-1.45,17.57-1.45,17.57"/><path class="cls-2" d="M150.5,36.18s0-34-7-34"/><path class="cls-10" d="M158.31,35.88a4.16,4.16,0,0,1,1,4.24,4.12,4.12,0,0,1-2.08,2.4l-8.66,4.35A4.17,4.17,0,0,1,143,45l-3.72-7.42,5-2.52a2.07,2.07,0,0,1,2.78.92h0a2.08,2.08,0,0,0,2.79.93l3.49-1.75A4.3,4.3,0,0,1,158.31,35.88Z"/><path class="cls-1" d="M143.63,54.12,164.19,43.8a2.93,2.93,0,0,0,1.34-4"/><line class="cls-1" x1="147.43" y1="47.24" x2="149.42" y2="51.21"/><line class="cls-1" x1="152.89" y1="44.7" x2="154.8" y2="48.51"/><line class="cls-1" x1="158.08" y1="42.09" x2="159.99" y2="45.91"/><line class="cls-1" x1="148.94" y1="37.14" x2="148.02" y2="39.93"/><line class="cls-1" x1="152.22" y1="35.74" x2="153.38" y2="38.04"/><path class="cls-3" d="M146.89,41.36a4.15,4.15,0,0,1-4.51,5l-9.64-1a4.16,4.16,0,0,1-3.68-4.58l.89-8.26,5.59.61a2.08,2.08,0,0,1,1.84,2.29h0a2.07,2.07,0,0,0,1.84,2.28l3.88.42A4.29,4.29,0,0,1,146.89,41.36Z"/><path class="cls-2" d="M124.68,48.73l22.86,2.47a2.93,2.93,0,0,0,3.31-2.66"/><line class="cls-2" x1="131.59" y1="45.01" x2="131.12" y2="49.43"/><line class="cls-2" x1="137.56" y1="45.83" x2="137.1" y2="50.08"/><line class="cls-2" x1="143.33" y1="46.45" x2="142.88" y2="50.7"/><line class="cls-2" x1="138.34" y1="37.34" x2="136.05" y2="39.19"/><line class="cls-2" x1="141.86" y1="37.94" x2="141.58" y2="40.5"/></g></g></svg>