<svg xmlns="http://www.w3.org/2000/svg" viewBox="0 0 225.19 77"><defs><style>.cls-1,.cls-10,.cls-4,.cls-5,.cls-9{fill:#fff;}.cls-1,.cls-2,.cls-3,.cls-9{stroke:#aaa;}.cls-1,.cls-11,.cls-2,.cls-3,.cls-5,.cls-6,.cls-8{stroke-linecap:round;stroke-linejoin:round;}.cls-1,.cls-10,.cls-11,.cls-12,.cls-2,.cls-3,.cls-5,.cls-6,.cls-8,.cls-9{stroke-width:3px;}.cls-2{fill:#e6e6e6;}.cls-11,.cls-12,.cls-3,.cls-6{fill:none;}.cls-10,.cls-12,.cls-4,.cls-5,.cls-6,.cls-8{stroke:#272727;}.cls-10,.cls-12,.cls-4,.cls-9{stroke-miterlimit:10;}.cls-4{stroke-width:2px;}.cls-7{fill:#272727;}.cls-8{fill:#cd75f6;}.cls-11{stroke:#cd75f6;}.cls-13{fill:#ad67d6;}</style></defs><title>7</title><g id="Слой_2" data-name="Слой 2"><g id="Слой_1_копия_4" data-name="Слой 1 копия 4"><polygon class="cls-1" points="52.47 46.97 52.47 74.5 9.99 74.5 9.99 45.5 30.5 25 52.47 46.97"/><line class="cls-1" x1="59.49" y1="54" x2="52.46" y2="46.97"/><line class="cls-1" x1="9.99" y1="45.5" x2="1.5" y2="54"/><path class="cls-2" d="M30.5,52.53h0a7.32,7.32,0,0,1,7.32,7.32V72.18A2.32,2.32,0,0,1,35.5,74.5h-10a2.32,2.32,0,0,1-2.32-2.32V59.86a7.32,7.32,0,0,1,7.32-7.32Z"/><line class="cls-3" x1="21.71" y1="45.21" x2="40.02" y2="45.21"/><line class="cls-3" x1="35.03" y1="41.21" x2="26.69" y2="41.21"/><path class="cls-4" d="M64.51,75H63.46a3.06,3.06,0,0,1-1-.14A13.4,13.4,0,0,0,64.51,75Z"/><rect class="cls-5" x="38.19" y="68.29" width="26.32" height="6.66" rx="3.04"/><path class="cls-5" d="M114.47,19.14A33.16,33.16,0,0,1,113.3,24a20.49,20.49,0,0,1-2.19,3.29s-3.29,2.2-5.48,2.45-8.23-.53-8.23-.53v9.19a14.24,14.24,0,0,1-2,22.14l-1.2,9.68c3.25.7,6.49,2.19,7,5.32H87V62.88a14.49,14.49,0,0,1-5.36-1.27A5.86,5.86,0,0,0,78.76,64L78,65.23a14,14,0,0,1-2,3.82A18.09,18.09,0,0,1,81,71.66c1.09,1.1,0,3.29,0,3.29H64.51a13.4,13.4,0,0,1-2-.14h0a14.26,14.26,0,0,1-2-27.78L80.15,36.45l0,0,1.31-.7a13.86,13.86,0,0,1,2.74-.95V13h14.8c2.19,0,4.39,5.48,6.58,5.48S114.47,19.14,114.47,19.14Z"/><path class="cls-6" d="M73,50.25a14.23,14.23,0,0,1,3.17,18.3"/><line class="cls-6" x1="86.99" y1="68.92" x2="86.99" y2="57.96"/><circle class="cls-7" cx="98.5" cy="19.03" r="2.19"/><circle class="cls-7" cx="111.66" cy="21.22" r="2.19"/><path class="cls-5" d="M97.82,29.22a3.5,3.5,0,0,1-2.06-3.06"/><polygon class="cls-8" points="83.75 28.55 97.28 31.22 97.9 36.84 84.39 34.4 83.75 28.55"/><path class="cls-5" d="M83,30.91h0a5.94,5.94,0,0,1-4,0l-1.31-.48a4.11,4.11,0,0,1-2.7-3.86v-.16a9.31,9.31,0,0,1,2.35-6.19l4.12-5.87a4,4,0,0,1,3-1.35H87V25.17A6.11,6.11,0,0,1,83,30.91Z"/><line class="cls-6" x1="74.69" y1="11.5" x2="107.69" y2="11.5"/><rect class="cls-8" x="84.69" y="1.5" width="14" height="10"/><path class="cls-5" d="M130.19,71.76a2.26,2.26,0,1,1-4.52,0h-17a2.27,2.27,0,1,1-2.27-2.26,2.26,2.26,0,1,1,2.27-2.26h17a2.26,2.26,0,1,1,2.26,2.26A2.26,2.26,0,0,1,130.19,71.76Z"/><path class="cls-9" d="M163.41,50.34v-.83c1.14,0,2.07,1.76,2.07,2.89v19a2.07,2.07,0,0,1-2.07,2.07h0a2.07,2.07,0,0,1-2.07-2.07v-19A2.07,2.07,0,0,1,163.41,50.34Z"/><rect class="cls-10" x="167.96" y="20.5" width="4.14" height="26.53" rx="2.07"/><path class="cls-10" d="M172.09,44.56V71.3a2.16,2.16,0,0,1-1.59,2.15,2.06,2.06,0,0,1-2.54-2V57.53s0-4.71-8.27-4.71-9.93,4.71-9.93,4.71V71.3a2.17,2.17,0,0,1-1.59,2.15,2.07,2.07,0,0,1-2.55-2V58.53a1.24,1.24,0,0,0-1.19-1.24h0a1.24,1.24,0,0,0-1.29,1.24V71.3a2.17,2.17,0,0,1-1.59,2.15,2.07,2.07,0,0,1-2.55-2V57.05c0-.23,0-.45,0-.68v0c.22-16.51,8.27-15.09,8.27-15.09s2.48-3.31,12.41-3.31c5.85,0,9.12,1.73,10.81,3.14A4.53,4.53,0,0,1,172.09,44.56Z"/><path class="cls-11" d="M150.19,40.25v2.89a16,16,0,0,1-.11,1.85c-.56,2.85-3.16,6-6.3,6-1.4,0-3,.23-4.09-.5"/><path class="cls-12" d="M172.09,45.38V71.3a2.16,2.16,0,0,1-1.59,2.15,2.06,2.06,0,0,1-2.54-2V57.53s0-4.71-8.27-4.71-9.93,4.71-9.93,4.71V71.3a2.17,2.17,0,0,1-1.59,2.15,2.07,2.07,0,0,1-2.55-2V58.53a1.24,1.24,0,0,0-1.19-1.24h0a1.24,1.24,0,0,0-1.29,1.24V71.3a2.17,2.17,0,0,1-1.59,2.15,2.07,2.07,0,0,1-2.55-2V57.05c0-.23,0-.45,0-.68v0c.22-16.51,8.27-15.09,8.27-15.09s2.48-3.31,12.41-3.31c4.62,0,7.63,1.08,9.53,2.23A6.08,6.08,0,0,1,172.09,45.38Z"/><path class="cls-5" d="M148.93,34.62v9.1a6.36,6.36,0,0,1-.12,1.24,6.62,6.62,0,0,1-13,0,7.24,7.24,0,0,1-.12-1.24v-9.1l2.25,4.13a6.61,6.61,0,0,1,8.74,0Z"/><circle class="cls-7" cx="139.42" cy="43.3" r="1.24"/><circle class="cls-7" cx="145.21" cy="43.3" r="1.24"/><path class="cls-8" d="M222.69,65v5a3.5,3.5,0,0,1-3.5,3.5h-5a3.49,3.49,0,0,1-3-1.71,3.49,3.49,0,0,1-3,1.71h-9a3.48,3.48,0,0,1-3.28-2.3,3.49,3.49,0,0,1-2.72,1.3h-5a3.5,3.5,0,0,1-3.5-3.5V65a3.5,3.5,0,0,1,3.5-3.5h5a3.49,3.49,0,0,1,3,1.71,3.49,3.49,0,0,1,3-1.71h9a3.49,3.49,0,0,1,3,1.71,3.49,3.49,0,0,1,3-1.71h5A3.5,3.5,0,0,1,222.69,65Z"/><path class="cls-13" d="M218.69,66.5v5H196.05a2,2,0,0,1-.14-.3,3.65,3.65,0,0,1-.27.3h-3.95v-5Z"/><path class="cls-5" d="M223.69,66v5.74a3,3,0,0,1-3.24,2.76H185.94a3,3,0,0,1-3.25-2.76V66h13v2.13a2.33,2.33,0,0,0,2.5,2.12h11a2.33,2.33,0,0,0,2.5-2.12V66Z"/><line class="cls-6" x1="215.69" y1="70.5" x2="218.69" y2="70.5"/><line class="cls-6" x1="187.69" y1="70.5" x2="190.69" y2="70.5"/></g></g></svg>