<svg xmlns="http://www.w3.org/2000/svg" viewBox="0 0 207.55 93.5"><defs><style>.cls-1{fill:none;}.cls-1,.cls-2,.cls-3,.cls-4,.cls-7{stroke:#272727;}.cls-1,.cls-2,.cls-3,.cls-4{stroke-linecap:round;stroke-linejoin:round;}.cls-1,.cls-2,.cls-3,.cls-4,.cls-7,.cls-8{stroke-width:3px;}.cls-2,.cls-5{fill:#cd75f6;}.cls-3{fill:#efdcff;}.cls-4,.cls-8{fill:#fff;}.cls-6{fill:#272727;}.cls-7{fill:#ad67d6;}.cls-7,.cls-8{stroke-miterlimit:10;}.cls-8{stroke:#fff;}</style></defs><title>8</title><g id="Слой_2" data-name="Слой 2"><g id="Слой_1_копия_5" data-name="Слой 1 копия 5"><path class="cls-1" d="M23.05,73.5,21,71.43,17.05,67.5c-2-2-3.5-7.34-3.5-10.5,0-3,3.5-3.5,4.5-2.5s4,8,5,9,8,5,10,7,3,9,3,11-1.5,3.5-2,5,3,5,3,5h-15a10.37,10.37,0,0,0-1-3c-.5-.5-1.5-.5-3-2s-10.5-12.5-12-15-2.5-11.5-3-14-2.5-14.5-1-16a3.06,3.06,0,0,1,3-1,7.12,7.12,0,0,1,2,1c.5.5,1.5,11.5,3,15s3,8,5,11,6,4,6,4Z"/><path class="cls-1" d="M184.5,74l2.07-2.07L190.5,68c2-2,3.5-7.34,3.5-10.5,0-3-3.5-3.5-4.5-2.5s-4,8-5,9-8,5-10,7-3,9-3,11,1.5,3.5,2,5-3,5-3,5h15a10.37,10.37,0,0,1,1-3c.5-.5,1.5-.5,3-2s10.5-12.5,12-15,2.5-11.5,3-14,2.5-14.5,1-16a3.06,3.06,0,0,0-3-1,7.12,7.12,0,0,0-2,1c-.5.5-1.5,11.5-3,15s-3,8-5,11-6,4-6,4Z"/><polygon class="cls-2" points="115.05 9.85 115.05 15.15 106.7 15.15 106.7 23.5 101.39 23.5 101.39 15.15 93.05 15.15 93.05 9.85 101.39 9.85 101.39 1.5 106.7 1.5 106.7 9.85 115.05 9.85"/><path class="cls-2" d="M61,34a8.47,8.47,0,0,1-2.06,6.5,10.24,10.24,0,0,0-2.47,6.79v3.3H48.63V47.3a11,11,0,0,0-2.65-7,8.5,8.5,0,0,1,7.55-13.84A8.51,8.51,0,0,1,61,34Z"/><path class="cls-2" d="M48.55,35c0-2.39.68-4,3-4"/><rect class="cls-3" x="50.55" y="51" width="4" height="3"/><rect class="cls-3" x="49.55" y="54" width="6" height="3"/><line class="cls-1" x1="35.55" y1="20" x2="41.05" y2="25.5"/><line class="cls-1" x1="69.05" y1="20" x2="63.55" y2="25.5"/><line class="cls-1" x1="52.55" y1="21" x2="52.55" y2="12"/><line class="cls-1" x1="37.05" y1="34.5" x2="28.05" y2="34.5"/><line class="cls-1" x1="76.05" y1="34.5" x2="67.05" y2="34.5"/><rect class="cls-4" x="142.55" y="23" width="24" height="35"/><rect class="cls-2" x="147.55" y="28" width="14" height="6"/><rect class="cls-5" x="146.55" y="39" width="4" height="4" rx="1.53"/><rect class="cls-6" x="158.55" y="39" width="4" height="4" rx="1.53"/><rect class="cls-6" x="146.55" y="45" width="4" height="4" rx="1.53"/><rect class="cls-6" x="152.55" y="45" width="4" height="4" rx="1.53"/><rect class="cls-6" x="158.55" y="45" width="4" height="4" rx="1.53"/><rect class="cls-6" x="146.55" y="51" width="4" height="4" rx="1.53"/><rect class="cls-6" x="152.55" y="51" width="4" height="4" rx="1.53"/><rect class="cls-6" x="158.55" y="51" width="4" height="4" rx="1.53"/><rect class="cls-6" x="152.55" y="39" width="4" height="4" rx="1.53"/><rect class="cls-7" x="90.3" y="55" width="25" height="25" rx="7.08"/><rect class="cls-8" x="95.3" y="60" width="15" height="15" rx="7.08"/><polyline class="cls-1" points="93.55 66.73 102.17 75.35 121.05 55.65"/></g></g></svg>