<svg xmlns="http://www.w3.org/2000/svg" viewBox="0 0 1808.21 361.42">
    <defs>
        <style>.cls-1,.cls-2,.cls-3{fill:none;}
            .cls-1{
                stroke:#999;
            }
            .cls-1,.cls-2,.cls-3,.cls-4{
                stroke-linecap:round;
                stroke-linejoin:round;
                stroke-width:3px;
            }
            .cls-2,.cls-4{
                stroke:#fff;
            }
            .cls-3{
                stroke:#B783FF;
            }
            .cls-4{
                fill:#B783FF;
            }
        </style>
    </defs>
    <title>banner</title>
    <g id="Слой_2" data-name="Слой 2">
        <g id="Слой_9" data-name="Слой 9"><circle class="cls-1" cx="694.48" cy="55.54" r="12.22"/><circle class="cls-2" cx="686.6" cy="46.86" r="18.53"/><circle class="cls-3" cx="673.59" cy="36.22" r="7.88"/><circle class="cls-1" cx="341.48" cy="322.54" r="12.22"/><circle class="cls-2" cx="333.6" cy="313.86" r="18.53"/><circle class="cls-3" cx="320.59" cy="303.22" r="7.88"/><circle class="cls-1" cx="1601.7" cy="235.16" r="21.39"/><circle class="cls-2" cx="1587.9" cy="219.98" r="32.43"/><circle class="cls-3" cx="1565.13" cy="201.35" r="13.8"/><polyline class="cls-1" points="1035.74 313.58 1050.8 328.64 1048.33 301 1063.39 316.05"/><polyline class="cls-2" points="1046.69 313.32 1072.24 338.86 1068.05 291.96 1093.59 317.5"/><polyline class="cls-3" points="1083.41 315.36 1092.45 324.4 1090.96 307.81 1100 316.84"/><polyline class="cls-1" points="545.73 36.86 519.32 63.27 567.81 58.94 541.4 85.35"/><polyline class="cls-2" points="546.2 56.06 501.39 100.87 583.66 93.52 538.85 138.33"/><polyline class="cls-3" points="542.61 120.47 526.76 136.32 555.87 133.72 540.01 149.57"/><polyline class="cls-1" points="1.5 236.34 37.29 272.14 31.43 206.41 67.22 242.21"/><polyline class="cls-2" points="27.52 235.71 88.25 296.43 78.29 184.94 139.01 245.66"/><polyline class="cls-3" points="114.8 240.56 136.28 262.05 132.76 222.6 154.25 244.09"/><polyline class="cls-1" points="322.43 97.08 296.37 71.02 278.1 89.28 304.17 115.35"/><polyline class="cls-2" points="323.48 116.01 278.74 71.27 304.8 45.21 349.54 89.95"/><polyline class="cls-3" points="342.79 66.29 326.72 50.22 315.46 61.48 331.53 77.56"/><polyline class="cls-1" points="980.14 81.22 948.97 50.06 927.13 71.9 958.3 103.06"/><polyline class="cls-2" points="981.39 103.86 927.89 50.36 959.06 19.2 1012.56 72.69"/><polyline class="cls-3" points="1004.49 44.41 985.27 25.19 971.8 38.66 991.02 57.87"/><circle class="cls-1" cx="1794.32" cy="73.62" r="12.38"/><line class="cls-1" x1="1781.94" y1="57.47" x2="1781.94" y2="101.62"/><circle class="cls-2" cx="1780.32" cy="87.54" r="17.07"/><line class="cls-2" x1="1763.25" y1="65.28" x2="1763.25" y2="126.12"/><circle class="cls-3" cx="1760.94" cy="108.64" r="6.73"/><line class="cls-3" x1="1754.21" y1="99.86" x2="1754.21" y2="123.85"/><circle class="cls-1" cx="89.75" cy="45.24" r="15.06"/><line class="cls-1" x1="65.21" y1="42" x2="103.18" y2="79.98"/><circle class="cls-2" cx="89.68" cy="69.25" r="20.76"/><line class="cls-2" x1="55.86" y1="64.78" x2="108.18" y2="117.11"/><circle class="cls-3" cx="91.15" cy="104.07" r="8.19"/><line class="cls-3" x1="77.81" y1="102.3" x2="98.45" y2="122.94"/><line class="cls-1" x1="741.66" y1="321.77" x2="766.06" y2="346.17"/><polyline class="cls-1" points="758.8 304.71 758.8 338.64 772.44 338.64 782.59 328.49"/><line class="cls-2" x1="735.63" y1="301.91" x2="772.83" y2="339.11"/><polyline class="cls-2" points="762.17 275.49 762.17 328.04 783.3 328.04 799.02 312.32"/><line class="cls-3" x1="775.26" y1="307.91" x2="788.85" y2="321.5"/><polyline class="cls-3" points="784.8 298.41 784.8 317.31 792.4 317.31 798.05 311.66"/><polyline class="cls-1" points="1149.38 87.82 1166.66 105.11 1178.83 92.94 1154.85 116.91"/><polyline class="cls-2" points="1148.71 72.13 1180.39 103.82 1202.71 81.5 1158.75 125.46"/><polyline class="cls-3" points="1183.29 89.54 1194.29 100.54 1202.04 92.8 1186.78 108.05"/><polyline class="cls-1" points="1711.38 304.82 1728.66 322.11 1740.83 309.94 1716.85 333.91"/><polyline class="cls-2" points="1710.71 289.13 1742.39 320.82 1764.71 298.5 1720.75 342.46"/><polyline class="cls-3" points="1745.29 306.54 1756.29 317.54 1764.04 309.8 1748.78 325.05"/><polyline class="cls-1" points="949.85 348.26 949.85 306.34 974.71 306.34 974.71 348.26"/><polyline class="cls-2" points="927.09 359.92 927.09 297.18 964.29 297.18 964.29 359.92"/><polyline class="cls-3" points="919.12 329.66 919.12 302.18 935.42 302.18 935.42 329.66"/><polyline class="cls-1" points="1384.01 88.07 1431.26 40.83 1459.27 68.84 1412.02 116.09"/><polyline class="cls-2" points="1345.21 75.56 1415.92 4.85 1457.85 46.77 1387.14 117.48"/><polyline class="cls-3" points="1370.34 32.48 1401.31 1.5 1419.68 19.87 1388.7 50.84"/><circle class="cls-4" cx="255.53" cy="200.38" r="23.13"/><path class="cls-2" d="M264.88,221.53a23.14,23.14,0,0,1-30.8-29.85,76.58,76.58,0,0,0,12.59,16.19A73.2,73.2,0,0,0,264.88,221.53Z"/><path class="cls-2" d="M249.18,178.13a22.87,22.87,0,0,0-10,5.89,23.2,23.2,0,0,0-5.1,7.66c-4.14-7.36-5.29-13.63-2.4-16.52S241.4,173.54,249.18,178.13Z"/><path class="cls-2" d="M279.39,222.87c-2.62,2.61-8,1.9-14.51-1.34a22.43,22.43,0,0,0,7-4.8,23.09,23.09,0,0,0,5.7-9.32C281.23,214.32,282.13,220.13,279.39,222.87Z"/><circle class="cls-4" cx="1581.23" cy="323.7" r="16.49"/><path class="cls-2" d="M1596.3,317a16.49,16.49,0,0,1-21.25,22,55,55,0,0,0,11.53-9A51.87,51.87,0,0,0,1596.3,317Z"/><path class="cls-2" d="M1565.38,328.24a16.32,16.32,0,0,0,4.2,7.13,16.81,16.81,0,0,0,5.47,3.63c-5.25,3-9.72,3.78-11.78,1.72S1562.11,333.79,1565.38,328.24Z"/><path class="cls-2" d="M1597.24,306.69c1.87,1.86,1.37,5.71-.94,10.33a16.49,16.49,0,0,0-10.07-9C1591.15,305.38,1595.29,304.74,1597.24,306.69Z"/><polygon class="cls-2" points="1426.21 209.05 1408.05 209.05 1393.8 214.05 1376.21 214.05 1376.21 187.05 1393.8 187.05 1408.56 182.05 1426.21 182.05 1426.21 209.05"/><polyline class="cls-3" points="1382.21 195.05 1394.21 195.05 1409.21 190.05 1419.21 190.05"/><polyline class="cls-1" points="1382.21 201.05 1394.21 201.05 1409.21 196.05"/><line class="cls-1" x1="1382.21" y1="207.05" x2="1394.21" y2="207.05"/><polygon class="cls-2" points="524.66 359.21 505.92 340.47 486.04 330.92 467.88 312.76 495.75 284.88 513.92 303.05 534.31 313.12 552.53 331.34 524.66 359.21"/><polyline class="cls-3" points="493.69 299.33 506.08 311.72 526.72 322.05 537.05 332.37"/><polyline class="cls-1" points="487.49 305.53 499.88 317.92 520.53 328.24"/><line class="cls-1" x1="481.3" y1="311.72" x2="493.69" y2="324.11"/><circle class="cls-4" cx="356.21" cy="194.05" r="4"/><circle class="cls-4" cx="385.21" cy="200.05" r="4"/><line class="cls-2" x1="376.21" y1="194.05" x2="360.21" y2="194.05"/><line class="cls-2" x1="399.21" y1="200.05" x2="389.21" y2="200.05"/><circle class="cls-4" cx="371.21" cy="208.05" r="4"/><line class="cls-2" x1="388.21" y1="208.05" x2="375.21" y2="208.05"/><circle class="cls-4" cx="648.21" cy="328.05" r="4"/><circle class="cls-4" cx="677.21" cy="334.05" r="4"/><line class="cls-2" x1="668.21" y1="328.05" x2="652.21" y2="328.05"/><line class="cls-2" x1="691.21" y1="334.05" x2="681.21" y2="334.05"/><circle class="cls-4" cx="663.21" cy="342.05" r="4"/><line class="cls-2" x1="680.21" y1="342.05" x2="667.21" y2="342.05"/><circle class="cls-4" cx="1413.58" cy="318.77" r="6.13"/><circle class="cls-4" cx="1369.15" cy="309.58" r="6.13"/><line class="cls-2" x1="1382.94" y1="318.77" x2="1407.45" y2="318.77"/><line class="cls-2" x1="1347.71" y1="309.58" x2="1363.02" y2="309.58"/><circle class="cls-4" cx="1390.6" cy="297.32" r="6.13"/><line class="cls-2" x1="1364.56" y1="297.32" x2="1384.47" y2="297.32"/><circle class="cls-4" cx="1598.58" cy="65.77" r="6.13"/><circle class="cls-4" cx="1554.15" cy="56.58" r="6.13"/><line class="cls-2" x1="1567.94" y1="65.77" x2="1592.45" y2="65.77"/><line class="cls-2" x1="1532.71" y1="56.58" x2="1548.02" y2="56.58"/><circle class="cls-4" cx="1575.6" cy="44.32" r="6.13"/><line class="cls-2" x1="1549.56" y1="44.32" x2="1569.47" y2="44.32"/></g></g></svg>
